# xmcd CD database file
#
# Track frame offsets:
#	150
#	16250
#	31015
#	49625
#	67012
#	87737
#	102850
#	112425
#	121350
#	137150
#
# Disc length: 1989 seconds
#
# Revision: 1
# Processed by: cddbd v1.4PL0 Copyright (c) Steve Scherf et al.
# Submitted via: CDex 1.50Beta5
#
DISCID=8b07c30a
DTITLE=Lulu Jazz Band - Square
DYEAR=1996
DGENRE=Jazz
TTITLE0=Royal Garden Blues
TTITLE1=Mack The Knife
TTITLE2=Jelly Roll
TTITLE3=Take The A Train
TTITLE4=Fables Of Faubus
TTITLE5=St-James Infirmary
TTITLE6=Rag
TTITLE7=Maple Leaf Rag
TTITLE8=Beï Mir
TTITLE9=It Don't Mean A Thing
EXTD=YEAR: 1996
EXTT0=
EXTT1=
EXTT2=
EXTT3=
EXTT4=
EXTT5=
EXTT6=
EXTT7=
EXTT8=
EXTT9=
PLAYORDER=
